<?xml version="1.0" encoding="UTF-8"?>
<svg width="1700px" height="1200px" viewBox="0 0 1700 1200" version="1.1" xmlns="http://www.w3.org/2000/svg" xmlns:xlink="http://www.w3.org/1999/xlink">
    <!-- Generator: Sketch 56.1 (81669) - https://sketch.com -->
    <title>Finance</title>
    <desc>Created with Sketch.</desc>
    <defs>
        <path d="M12.819426,2.83699174e-13 L51.439431,2.84735014e-13 C55.8970247,2.83916168e-13 57.5134559,0.464128056 59.1430855,1.33566352 C60.7727152,2.20719898 62.051658,3.48614185 62.9231935,5.11577148 C63.794729,6.74540111 64.258857,8.3618323 64.258857,12.819426 L64.258857,187.198634 C64.258857,191.656228 63.794729,193.272659 62.9231935,194.902289 C62.051658,196.531918 60.7727152,197.810861 59.1430855,198.682397 C57.5134559,199.553932 55.8970247,200.01806 51.439431,200.01806 L12.819426,200.01806 C8.3618323,200.01806 6.74540111,199.553932 5.11577148,198.682397 C3.48614185,197.810861 2.20719898,196.531918 1.33566352,194.902289 C0.464128056,193.272659 8.73114389e-13,191.656228 8.75435953e-13,187.198634 L8.74312845e-13,12.819426 C8.73766947e-13,8.3618323 0.464128056,6.74540111 1.33566352,5.11577148 C2.20719898,3.48614185 3.48614185,2.20719898 5.11577148,1.33566352 C6.74540111,0.464128056 8.3618323,2.84518021e-13 12.819426,2.83699174e-13 Z" id="path-1"></path>
        <path d="M12.819426,2.83699174e-13 L51.439431,2.84735014e-13 C55.8970247,2.83916168e-13 57.5134559,0.464128056 59.1430855,1.33566352 C60.7727152,2.20719898 62.051658,3.48614185 62.9231935,5.11577148 C63.794729,6.74540111 64.258857,8.3618323 64.258857,12.819426 L64.258857,187.198634 C64.258857,191.656228 63.794729,193.272659 62.9231935,194.902289 C62.051658,196.531918 60.7727152,197.810861 59.1430855,198.682397 C57.5134559,199.553932 55.8970247,200.01806 51.439431,200.01806 L12.819426,200.01806 C8.3618323,200.01806 6.74540111,199.553932 5.11577148,198.682397 C3.48614185,197.810861 2.20719898,196.531918 1.33566352,194.902289 C0.464128056,193.272659 7.52322124e-13,191.656228 7.54643688e-13,187.198634 L7.5352058e-13,12.819426 C7.52974682e-13,8.3618323 0.464128056,6.74540111 1.33566352,5.11577148 C2.20719898,3.48614185 3.48614185,2.20719898 5.11577148,1.33566352 C6.74540111,0.464128056 8.3618323,2.84518021e-13 12.819426,2.83699174e-13 Z" id="path-3"></path>
        <path d="M12.819426,0.491067817 L51.439431,0.491067817 C55.8970247,0.491067817 57.5134559,0.955195872 59.1430855,1.82673134 C60.7727152,2.6982668 62.051658,3.97720967 62.9231935,5.6068393 C63.794729,7.23646893 64.258857,8.85290012 64.258857,13.3104938 L64.258857,187.689702 C64.258857,192.147296 63.794729,193.763727 62.9231935,195.393356 C62.051658,197.022986 60.7727152,198.301929 59.1430855,199.173464 C57.5134559,200.045 55.8970247,200.509128 51.439431,200.509128 L12.819426,200.509128 C8.3618323,200.509128 6.74540111,200.045 5.11577148,199.173464 C3.48614185,198.301929 2.20719898,197.022986 1.33566352,195.393356 C0.464128056,193.763727 8.37587252e-13,192.147296 8.39908816e-13,187.689702 L8.37878874e-13,13.3104938 C8.38766707e-13,8.85290012 0.464128056,7.23646893 1.33566352,5.6068393 C2.20719898,3.97720967 3.48614185,2.6982668 5.11577148,1.82673134 C6.74540111,0.955195872 8.3618323,0.491067817 12.819426,0.491067817 Z" id="path-5"></path>
        <path d="M213.683722,141.555031 C216.018396,162.648956 216.075469,180.244438 214.322181,191.849776 C214.322181,192.152201 214.229156,192.555435 214.136131,192.85786 C213.671007,195.982922 213.019833,198.603942 212.182609,200.720919 C212.089585,200.922536 211.99656,201.124153 211.903535,201.32577 C207.159267,208.987211 169.67025,206.265383 160.832888,206.567809 C146.32101,207.071851 55.3895223,209.636279 53.2499506,208.224961 C52.2266772,207.519302 51.017354,199.712834 49.9940806,198.603942 C46.5140201,195.021259 48.0006298,173.097881 51.2979395,146.825489 L0.999359896,142.557596 C4.51104084,116.042492 6.86688131,101.051606 8.06688131,97.5849395 C11.5668813,87.6849395 21.6303374,68.9272542 23.9303374,60.1272542 C30.3303374,35.2272542 38.2303374,25.9272542 40.9303374,23.2272542 C44.0303374,20.0272542 47.0303374,17.8272542 49.0303374,16.4272542 C62.5303374,7.12725425 76.8303374,5.72725425 84.1303374,5.52725425 C84.2319024,5.47647173 91.709019,4.96149366 99.0707056,4.46687654 C104.98519,2.60213257 112.591803,2.02747458 124.08807,2.02747458 C132.502366,2.02747458 139.685199,2.53392844 145.609468,3.23827497 C143.93498,1.19139464 143.602452,0.660110175 147.530337,0.827254249 L183.030337,2.32725425 C183.230337,2.32725425 183.430337,2.32725425 183.630337,2.42725425 C190.930337,2.62725425 205.230337,4.02725425 218.730337,13.3272542 C220.730337,14.7272542 223.730337,16.9272542 226.830337,20.1272542 C229.530337,22.8272542 237.430337,32.1272542 243.830337,57.0272542 C246.130337,65.8272542 256.076431,82.0146297 259.576431,91.9146297 C261.909764,98.5146297 263.227733,112.685505 263.530337,134.427254 C248.702872,137.420169 232.087333,139.796092 213.683721,141.555025 Z" id="path-7"></path>
    </defs>
    <g id="Finance" stroke="none" stroke-width="1" fill="none" fill-rule="evenodd">
        <g id="Group-2" transform="translate(345.000000, 84.000000)">
            <g id="Interior-/-Chair-/--Chair-2" transform="translate(32.000000, 494.000000)" fill="#D8DEED">
                <g id="Chair-" transform="translate(0.000000, 4.000000)">
                    <path d="M115.401504,298.8 L36.3,298.8 C33.9,298.8 31.8,296.8 31.8,294.4 L31.8,293.9 C31.8,291.5 33.9,289.5 36.5,289.5 L109.8,289.5 C154.2,289.5 198.6,289.5 242.9,289.5 L310.9,289.5 C313.3,289.5 315.4,291.5 315.4,293.9 L315.4,294.4 C315.4,296.8 313.4,298.8 310.9,298.8 L214.398496,298.8 L241,347.6 C259.9,382.4 278.8,417.1 297.8,451.9 L329.1,509.3 C330.2,511.3 329.3,513.9 327.2,515.1 L326.8,515.3 C324.7,516.4 322,515.8 321,513.9 L203.9,298.8 L125.9,298.8 L8.8,513.9 C7.8,515.8 5.1,516.5 3,515.3 L2.6,515.1 C0.5,513.9 -0.4,511.3 0.7,509.3 L32,451.9 C50.9,417.1 69.8,382.4 88.8,347.6 L115.401504,298.8 Z M32.1,259.61237 L32.1,201.468894 C32.1,157.124425 32.1,112.881663 32.1,68.6389013 L32.1,15.8 C32.1,7.51572875 38.8157288,0.8 47.1,0.8 L210.3,0.8 C218.584271,0.8 225.3,7.51572875 225.3,15.8 L225.3,259.784199 C225.3,268.06847 218.584271,274.784199 210.3,274.784199 C210.294736,274.784199 210.289471,274.784196 210.284207,274.78419 L47.0842069,274.612361 C38.8061072,274.603646 32.1,267.890474 32.1,259.61237 Z" id="Combined-Shape" fill-rule="nonzero"></path>
                </g>
            </g>
            <g id="Interior-/-Chair-/--Chair-2" transform="translate(784.000000, 754.000000) scale(-1, 1) translate(-784.000000, -754.000000) translate(619.000000, 494.000000)" fill="#D8DEED">
                <g id="Chair-" transform="translate(0.000000, 4.000000)">
                    <path d="M115.401504,298.8 L36.3,298.8 C33.9,298.8 31.8,296.8 31.8,294.4 L31.8,293.9 C31.8,291.5 33.9,289.5 36.5,289.5 L109.8,289.5 C154.2,289.5 198.6,289.5 242.9,289.5 L310.9,289.5 C313.3,289.5 315.4,291.5 315.4,293.9 L315.4,294.4 C315.4,296.8 313.4,298.8 310.9,298.8 L214.398496,298.8 L241,347.6 C259.9,382.4 278.8,417.1 297.8,451.9 L329.1,509.3 C330.2,511.3 329.3,513.9 327.2,515.1 L326.8,515.3 C324.7,516.4 322,515.8 321,513.9 L203.9,298.8 L125.9,298.8 L8.8,513.9 C7.8,515.8 5.1,516.5 3,515.3 L2.6,515.1 C0.5,513.9 -0.4,511.3 0.7,509.3 L32,451.9 C50.9,417.1 69.8,382.4 88.8,347.6 L115.401504,298.8 Z M32.1,259.61237 L32.1,201.468894 C32.1,157.124425 32.1,112.881663 32.1,68.6389013 L32.1,15.8 C32.1,7.51572875 38.8157288,0.8 47.1,0.8 L210.3,0.8 C218.584271,0.8 225.3,7.51572875 225.3,15.8 L225.3,259.784199 C225.3,268.06847 218.584271,274.784199 210.3,274.784199 C210.294736,274.784199 210.289471,274.784196 210.284207,274.78419 L47.0842069,274.612361 C38.8061072,274.603646 32.1,267.890474 32.1,259.61237 Z" id="Combined-Shape" fill-rule="nonzero"></path>
                </g>
            </g>
            <g id="Group">
                <g id="UI-/-Charts-/-Chart-4-/-2" transform="translate(133.000000, 55.000000)">
                    <g id="Graphics-/-Graphic-3" stroke-width="1" fill-rule="evenodd">
                        <g id="Browser" fill="#F2F6FB" fill-rule="nonzero">
                            <g id="Background">
                                <rect x="0" y="0" width="383" height="294" rx="6"></rect>
                            </g>
                        </g>
                        <g id="Graphic" transform="translate(71.009862, 66.508997)">
                            <g id="Rectangle" transform="translate(177.476843, 0.755784)">
                                <mask id="mask-2" fill="white">
                                    <use xlink:href="#path-1"></use>
                                </mask>
                                <use id="Mask" fill="#E1E5F0" fill-rule="nonzero" xlink:href="#path-1"></use>
                                <path d="M2.8646762,113.275534 L61.3941808,113.275534 C62.3902911,113.275534 62.7515048,113.37925 63.1156679,113.574006 C63.4798309,113.768763 63.7656282,114.05456 63.9603847,114.418723 C64.1551412,114.782886 64.258857,115.1441 64.258857,116.14021 L64.258857,200.01806 L8.73967565e-13,200.01806 L8.74044723e-13,116.14021 C8.73922734e-13,115.1441 0.103715767,114.782886 0.298472295,114.418723 C0.493228823,114.05456 0.779026112,113.768763 1.14318916,113.574006 C1.5073522,113.37925 1.86856588,113.275534 2.8646762,113.275534 Z" fill="#D8DEED" fill-rule="nonzero" mask="url(#mask-2)"></path>
                            </g>
                            <g id="Rectangle" transform="translate(88.738422, 0.755784)">
                                <mask id="mask-4" fill="white">
                                    <use xlink:href="#path-3"></use>
                                </mask>
                                <use id="Mask" fill="#E1E5F0" fill-rule="nonzero" xlink:href="#path-3"></use>
                                <path d="M2.8646762,43.8815132 L61.3941808,43.8815132 C62.3902911,43.8815132 62.7515048,43.985229 63.1156679,44.1799855 C63.4798309,44.374742 63.7656282,44.6605393 63.9603847,45.0247023 C64.1551412,45.3888654 64.258857,45.7500791 64.258857,46.7461894 L64.258857,200.01806 L7.531753e-13,200.01806 L7.53252457e-13,46.7461894 C7.53130469e-13,45.7500791 0.103715767,45.3888654 0.298472295,45.0247023 C0.493228823,44.6605393 0.779026112,44.374742 1.14318916,44.1799855 C1.5073522,43.985229 1.86856588,43.8815132 2.8646762,43.8815132 Z" fill="#D8DEED" fill-rule="nonzero" mask="url(#mask-4)"></path>
                            </g>
                            <g id="Rectangle" transform="translate(0.000000, 0.264716)">
                                <mask id="mask-6" fill="white">
                                    <use xlink:href="#path-5"></use>
                                </mask>
                                <use id="Mask" fill="#E1E5F0" fill-rule="nonzero" xlink:href="#path-5"></use>
                                <path d="M2.8646762,79.0695914 L61.3941808,79.0695914 C62.3902911,79.0695914 62.7515048,79.1733072 63.1156679,79.3680637 C63.4798309,79.5628203 63.7656282,79.8486175 63.9603847,80.2127806 C64.1551412,80.5769436 64.258857,80.9381573 64.258857,81.9342676 L64.258857,200.509128 L8.38440428e-13,200.509128 L8.38290877e-13,81.9342676 C8.38527322e-13,80.9381573 0.103715767,80.5769436 0.298472295,80.2127806 C0.493228823,79.8486175 0.779026112,79.5628203 1.14318916,79.3680637 C1.5073522,79.1733072 1.86856588,79.0695914 2.8646762,79.0695914 Z" fill="#D8DEED" fill-rule="nonzero" mask="url(#mask-6)"></path>
                            </g>
                        </g>
                    </g>
                    <path d="M0,16.6272494 C0,7.44427311 7.43619117,0 16.6261683,0 L366.373832,0 C375.556211,0 383,7.44225402 383,16.6272494 L383,33.2544987 L0,33.2544987 L0,16.6272494 Z" id="Top-bar-Copy" fill="#E1E5F0" fill-rule="nonzero"></path>
                </g>
                <g id="UI-/-Charts-/-Chart-2-/-1" transform="translate(474.000000, 0.000000)">
                    <g id="Chart" stroke-width="1" fill-rule="evenodd">
                        <g id="Browser" fill="#F2F6FB" fill-rule="nonzero">
                            <rect id="Background" x="0" y="0" width="405" height="304" rx="20"></rect>
                        </g>
                        <g id="Graphic" transform="translate(54.319527, 70.334190)" fill-rule="nonzero">
                            <polygon id="Shape" fill="#D8DEED" points="152.750481 15.8839386 216.959372 35.6127057 284.772467 73.163644 289.276283 65.3283749 220.620764 27.3109507 151.610293 6.1068547 82.0197592 46.2476677 12.5947736 69.7160891 15.5795182 78.2219751 85.8723999 54.46017"></polygon>
                            <path d="M11.3822624,85.8472114 C5.09601246,85.8472114 1.25055521e-12,80.8648828 1.25055521e-12,74.7188691 C1.25055521e-12,68.5728554 5.09601246,63.5905269 11.3822624,63.5905269 C17.6685123,63.5905269 22.7645248,68.5728554 22.7645248,74.7188691 C22.7645248,80.8648828 17.6685123,85.8472114 11.3822624,85.8472114 Z M79.6758368,60.4110006 C73.3895868,60.4110006 68.2935744,55.4286721 68.2935744,49.2826584 C68.2935744,43.1366447 73.3895868,38.1543162 79.6758368,38.1543162 C85.9620867,38.1543162 91.0580992,43.1366447 91.0580992,49.2826584 C91.0580992,55.4286721 85.9620867,60.4110006 79.6758368,60.4110006 Z M147.969411,22.2566844 C141.683161,22.2566844 136.587149,17.2743559 136.587149,11.1283422 C136.587149,4.98232852 141.683161,-2.34479103e-13 147.969411,-2.34479103e-13 C154.255661,-2.34479103e-13 159.351674,4.98232852 159.351674,11.1283422 C159.351674,17.2743559 154.255661,22.2566844 147.969411,22.2566844 Z M216.262986,41.3338425 C209.976736,41.3338425 204.880723,36.351514 204.880723,30.2055003 C204.880723,24.0594866 209.976736,19.0771581 216.262986,19.0771581 C222.549235,19.0771581 227.645248,24.0594866 227.645248,30.2055003 C227.645248,36.351514 222.549235,41.3338425 216.262986,41.3338425 Z M284.55656,82.667685 C278.27031,82.667685 273.174298,77.6853565 273.174298,71.5393428 C273.174298,65.3933291 278.27031,60.4110006 284.55656,60.4110006 C290.84281,60.4110006 295.938822,65.3933291 295.938822,71.5393428 C295.938822,77.6853565 290.84281,82.667685 284.55656,82.667685 Z" id="Oval" fill="#FFCB3D"></path>
                        </g>
                        <path d="M234.295666,201.412797 L234.295666,254.049928 C234.295666,256.167875 232.576492,257.892031 230.455782,257.892031 L228.384479,257.892031 C226.265445,257.892031 224.544595,256.171863 224.544595,254.049928 L224.544595,201.412797 C224.544595,199.29485 226.26377,197.570694 228.384479,197.570694 L230.455782,197.570694 C232.574817,197.570694 234.295666,199.290862 234.295666,201.412797 Z M214.793524,210.933963 L214.793524,254.053184 C214.793524,256.17282 213.074349,257.892031 210.95364,257.892031 L208.882337,257.892031 C206.763302,257.892031 205.042453,256.17332 205.042453,254.053184 L205.042453,210.933963 C205.042453,208.814327 206.761627,207.095116 208.882337,207.095116 L210.95364,207.095116 C213.072674,207.095116 214.793524,208.813826 214.793524,210.933963 Z M195.291381,182.363441 L195.291381,254.050441 C195.291381,256.179052 193.572207,257.892031 191.451497,257.892031 L189.380194,257.892031 C187.26116,257.892031 185.54031,256.172093 185.54031,254.050441 L185.54031,182.363441 C185.54031,180.23483 187.259485,178.521851 189.380194,178.521851 L191.451497,178.521851 C193.570532,178.521851 195.291381,180.241789 195.291381,182.363441 Z M175.789239,201.412797 L175.789239,254.049928 C175.789239,256.167875 174.070064,257.892031 171.949355,257.892031 L169.878052,257.892031 C167.759018,257.892031 166.038168,256.171863 166.038168,254.049928 L166.038168,201.412797 C166.038168,199.29485 167.757343,197.570694 169.878052,197.570694 L171.949355,197.570694 C174.068389,197.570694 175.789239,199.290862 175.789239,201.412797 Z M156.287097,172.845652 L156.287097,254.043808 C156.287097,256.175957 154.567922,257.892031 152.447212,257.892031 L150.37591,257.892031 C148.256875,257.892031 146.536025,256.169123 146.536025,254.043808 L146.536025,172.845652 C146.536025,170.713503 148.2552,168.997429 150.37591,168.997429 L152.447212,168.997429 C154.566247,168.997429 156.287097,170.720337 156.287097,172.845652 Z M136.784954,182.363441 L136.784954,254.050441 C136.784954,256.179052 135.06578,257.892031 132.94507,257.892031 L130.873767,257.892031 C128.754733,257.892031 127.033883,256.172093 127.033883,254.050441 L127.033883,182.363441 C127.033883,180.23483 128.753058,178.521851 130.873767,178.521851 L132.94507,178.521851 C135.064105,178.521851 136.784954,180.241789 136.784954,182.363441 Z M117.282812,166.499465 L117.282812,254.040381 C117.282812,256.178083 115.563637,257.892031 113.442928,257.892031 L111.371625,257.892031 C109.25259,257.892031 107.531741,256.167588 107.531741,254.040381 L107.531741,166.499465 C107.531741,164.361763 109.250915,162.647815 111.371625,162.647815 L113.442928,162.647815 C115.561962,162.647815 117.282812,164.372257 117.282812,166.499465 Z M97.7806694,160.14136 L97.7806694,254.048871 C97.7806694,256.171307 96.0614947,257.892031 93.9407852,257.892031 L91.8694823,257.892031 C89.7504479,257.892031 88.0295982,256.17139 88.0295982,254.048871 L88.0295982,160.14136 C88.0295982,158.018924 89.7487729,156.298201 91.8694823,156.298201 L93.9407852,156.298201 C96.0598197,156.298201 97.7806694,158.018842 97.7806694,160.14136 Z M78.278527,182.363441 L78.278527,254.050441 C78.278527,256.179052 76.5593523,257.892031 74.4386428,257.892031 L72.3673399,257.892031 C70.2483054,257.892031 68.5274558,256.172093 68.5274558,254.050441 L68.5274558,182.363441 C68.5274558,180.23483 70.2466304,178.521851 72.3673399,178.521851 L74.4386428,178.521851 C76.5576773,178.521851 78.278527,180.241789 78.278527,182.363441 Z M351.308521,201.412797 L351.308521,254.049928 C351.308521,256.167875 349.589346,257.892031 347.468637,257.892031 L345.397334,257.892031 C343.278299,257.892031 341.55745,256.171863 341.55745,254.049928 L341.55745,201.412797 C341.55745,199.29485 343.276624,197.570694 345.397334,197.570694 L347.468637,197.570694 C349.587671,197.570694 351.308521,199.290862 351.308521,201.412797 Z M331.806378,172.845652 L331.806378,254.043808 C331.806378,256.175957 330.087204,257.892031 327.966494,257.892031 L325.895191,257.892031 C323.776157,257.892031 322.055307,256.169123 322.055307,254.043808 L322.055307,172.845652 C322.055307,170.713503 323.774482,168.997429 325.895191,168.997429 L327.966494,168.997429 C330.085529,168.997429 331.806378,170.720337 331.806378,172.845652 Z M312.304236,182.363441 L312.304236,254.050441 C312.304236,256.179052 310.585061,257.892031 308.464352,257.892031 L306.393049,257.892031 C304.274014,257.892031 302.553165,256.172093 302.553165,254.050441 L302.553165,182.363441 C302.553165,180.23483 304.272339,178.521851 306.393049,178.521851 L308.464352,178.521851 C310.583386,178.521851 312.304236,180.241789 312.304236,182.363441 Z M292.802094,166.499465 L292.802094,254.040381 C292.802094,256.178083 291.082919,257.892031 288.962209,257.892031 L286.890907,257.892031 C284.771872,257.892031 283.051022,256.167588 283.051022,254.040381 L283.051022,166.499465 C283.051022,164.361763 284.770197,162.647815 286.890907,162.647815 L288.962209,162.647815 C291.081244,162.647815 292.802094,164.372257 292.802094,166.499465 Z M273.299951,160.14136 L273.299951,254.048871 C273.299951,256.171307 271.580776,257.892031 269.460067,257.892031 L267.388764,257.892031 C265.26973,257.892031 263.54888,256.17139 263.54888,254.048871 L263.54888,160.14136 C263.54888,158.018924 265.268055,156.298201 267.388764,156.298201 L269.460067,156.298201 C271.579101,156.298201 273.299951,158.018842 273.299951,160.14136 Z M253.797809,182.363441 L253.797809,254.050441 C253.797809,256.179052 252.078634,257.892031 249.957925,257.892031 L247.886622,257.892031 C245.767587,257.892031 244.046738,256.172093 244.046738,254.050441 L244.046738,182.363441 C244.046738,180.23483 245.765912,178.521851 247.886622,178.521851 L249.957925,178.521851 C252.076959,178.521851 253.797809,180.241789 253.797809,182.363441 Z" id="Diagram-2" fill="#D8DEED" fill-rule="nonzero"></path>
                    </g>
                    <path d="M0,17.1928021 C0,7.69747967 7.70644739,0 17.1920319,0 L387.807968,0 C397.302865,0 405,7.69539191 405,17.1928021 L405,34.3856041 L0,34.3856041 L0,17.1928021 Z" id="Top-bar-Copy" fill="#E1E5F0" fill-rule="nonzero"></path>
                    <ellipse id="Burron-Copy" fill="#FF5645" fill-rule="nonzero" cx="23.5650888" cy="17.5835476" rx="7.5887574" ry="7.42416452"></ellipse>
                    <ellipse id="Burron-Copy-2" fill="#FFCB3D" fill-rule="nonzero" cx="48.3284024" cy="17.5835476" rx="7.5887574" ry="7.42416452"></ellipse>
                    <ellipse id="Burron-Copy-3" fill="#3ABF7C" fill-rule="nonzero" cx="73.8905325" cy="17.5835476" rx="7.5887574" ry="7.42416452"></ellipse>
                </g>
                <g id="Characters-sitting-/-Man-sitting-/-4" transform="translate(489.000000, 258.000000)">
                    <g id="Man" transform="translate(83.000000, 78.000000)">
                        <g id="Legs" transform="translate(0.000000, 300.000000)" fill-rule="nonzero">
                            <path d="M126.673797,368.90753 L226,294.90753 C228,293.40753 230.9,293.80753 232.4,295.80753 C233.9,297.80753 233.5,300.70753 231.5,302.20753 L131.1,377.00753 C129.1,378.50753 126.2,378.10753 124.7,376.10753 C123.2,374.10753 123.6,371.20753 125.6,369.70753 L126.673797,368.90753 L128.1,368.90753 C130.6,368.90753 132.7,370.961878 132.7,373.40753 C132.6,375.951009 130.6,377.90753 128.1,377.90753 L72.6,377.90753 C70.1,377.90753 68,375.853183 68,373.40753 C68,370.961878 70.1,368.90753 72.6,368.90753 L126.673797,368.90753 Z M302.9,378.112682 L200.3,378.112682 C197.9,378.112682 195.8,376.381913 195.8,374.30499 L195.8,372.920374 C195.8,370.843451 197.8,369.112682 200.3,369.112682 L302.8,369.112682 C305.2,369.112682 307.3,370.843451 307.3,372.920374 L307.3,374.30499 C307.5,376.381913 305.4,378.112682 302.9,378.112682 Z" id="Base" fill="#FF5645"></path>
                            <path d="M209.275092,318.76553 C210.765069,319.382724 235.256932,318.460881 282.750684,316 L299.833179,369.112682 L200.3,369.112682 C200.27086,369.112682 200.241788,369.113385 200.212786,369.113385 C206.703534,336.788034 209.749212,319.986858 209.349819,318.709856 L209.275092,318.76553 L209.275092,318.76553 Z M225.622225,295.18898 L126.673797,368.90753 L72.6,368.90753 C71.9907126,368.90753 71.405184,369.029553 70.8680233,369.249523 C70.7804803,368.821102 70.7188717,368.396305 70.7,368 C70.8,367.3 70.8,366.5 71,365.7 C71.5,363.9 72.3,362.2 73.2,360.7 C76.1,356.1 81.3,352.9 81.3,352.9 C87.3,349 92.8,346.4 99.3,343.6 C102.7,342.1 107.5,340.1 113.1,337.9 C114.9,332.1 116.7,326.3 118.5,320.4 C121.9,309.1 125.3,297.9 128.6,286.7 L188.8,243 L225.622225,295.18898 L225.622225,295.18898 Z" id="Shape" fill="#474961"></path>
                            <path d="M208.16804,270.633707 C201.483342,274.716694 189.873255,277.755803 171.650093,283.91016 C138.172601,295.24341 124.789505,302.675642 114.930608,295.085934 C111.632889,292.65838 110.074651,289.775798 109.463439,288.400258 C94.0821776,252.632096 34.7558947,151.818731 3.80454034,77.1203428 C3.76217127,76.9289523 3.64317197,76.85322 3.6008029,76.6618294 C-6.33002488,52.5836981 4.98927402,25.6689221 28.8416892,17.5002751 C36.7272844,14.7907015 44.6340641,12.1768231 52.5196593,9.46724938 C59.6651801,7.06586698 67.1003929,6.60150063 74.2284648,7.82931109 L73.8359375,7.17240803 L312.020246,0.373046875 C316.120246,2.39674538 318.776238,10.6574279 323.44798,23.6292305 C328.119723,36.6010332 329.6,59.2055864 329.2,61.7812027 C329.2,81.9262014 325.6,100.415447 319.6,114.673323 C315.4,124.515856 310.2,132.334691 304.2,137.301951 C303.168806,138.16978 302.118357,138.949049 301.050765,139.636843 C301.049776,141.022151 301.049282,142.422501 301.049282,143.836718 C301.049282,196.143035 299.249282,270.880158 298.649282,295.728076 C298.549282,299.015349 298.949282,307.910324 292.949282,313.518025 C291.249282,315.161662 289.549282,315.838453 286.349282,317.288721 C283.849282,318.448935 272.649282,321.929577 250.249282,323.863267 C248.849282,323.959952 247.349282,324.056636 245.849282,323.959952 C223.389534,323.113909 217.378617,321.628072 208.882378,319.05811 L231.5,302.20753 C233.5,300.70753 233.9,297.80753 232.4,295.80753 C230.9,293.80753 228,293.40753 226,294.90753 L225.537622,295.252011 L208.16804,270.633707 Z M185.876078,189.542094 C185.229692,181.988501 184.654093,173.591908 184.149282,164.237149 L182.408744,135.761021 L155.080479,125.680197 C165.407876,146.665393 175.719907,168.017899 185.876078,189.542094 Z" fill="#A339FF"></path>
                            <path d="M301.050912,139.263702 C301.064569,121.035849 301.164026,105.427722 301.349282,95.1286879 C301.549282,86.3303979 303.049282,37.988145 283.649282,27.9329565 C281.949282,27.0627959 280.249282,26.3860044 276.849282,25.1291058 C274.149282,24.1622607 260.149282,19.1346664 242.149282,19.9081425 C230.449282,20.391565 212.849282,21.1650411 198.349282,33.2506043 C178.349282,49.9770238 178.849282,76.3718938 179.049282,80.6260121 L182.394564,135.356622 L154.920668,125.183086 C139.22054,93.2867847 123.486574,62.2416928 108.212369,32.7350916 C100.663413,18.1855378 86.6050522,8.94796246 71.5275628,7.27464557 L312.020246,0 C316.120246,2.0236985 318.776238,10.284381 323.44798,23.2561837 C328.119723,36.2279863 329.6,58.8325395 329.2,61.4081558 C329.2,81.5531546 325.6,100.0424 319.6,114.300276 C315.4,124.142809 310.2,131.961645 304.2,136.928904 C303.168853,137.796694 302.118453,138.575931 301.050912,139.263702 Z" id="Shadow-Legs" fill="#444444" opacity="0.176985679"></path>
                            <path d="M202.076337,271.268411 C207.073294,269.208309 211.06009,266.477912 212.648396,263.268212 C214.921826,258.809027 214.998938,254.182707 213.970639,249.388371 C208.346041,223.164276 204.300345,205.704814 201.82483,196.979347 C201.59872,196.182374 200.769348,195.719598 199.972375,195.945709 C199.175402,196.171819 198.712626,197.001192 198.938737,197.798164 C201.390586,206.440217 205.426364,223.856879 211.03735,250.01751 C211.934463,254.200204 211.867889,258.194238 209.967635,261.92166 C208.7865,264.308295 205.305956,266.691981 200.932887,268.494871 C200.166995,268.810626 199.802087,269.687475 200.117842,270.453366 C200.433597,271.219258 201.310445,271.584166 202.076337,271.268411 Z" id="Shadow" fill="#482D1F" transform="translate(206.743018, 233.635203) rotate(-12.000000) translate(-206.743018, -233.635203) "></path>
                        </g>
                        <g id="Body" transform="translate(94.000000, 0.000000)">
                            <g id="Path-5" transform="translate(7.169663, 94.803732)">
                                <g transform="translate(0.000000, 0.000000)">
                                    <mask id="mask-8" fill="white">
                                        <use xlink:href="#path-7"></use>
                                    </mask>
                                    <use id="Shirt" fill="#FF5645" fill-rule="nonzero" xlink:href="#path-7"></use>
                                    <path d="M104.60778,3.36191746 C96.4803937,5.69741491 91.3846128,13.840113 89.3204374,27.7900116 C87.256262,41.7399103 84.759562,82.740902 81.8303374,150.792987 L127.62684,164.98235 L175.50434,152.196268 C172.545126,79.5631149 170.093245,37.8027836 168.148697,26.9152737 C165.231874,10.5840088 162.463128,7.35309466 152.921987,3.36191746 C143.380846,-0.629259731 134.315135,-0.0705051088 123.72684,0.893467284 C116.667977,1.53611555 110.294957,2.35893227 104.60778,3.36191746 Z" id="T-shirt" fill="#FFCB3D" fill-rule="nonzero" mask="url(#mask-8)"></path>
                                </g>
                            </g>
                            <path d="M154.000354,68.0485107 L155.1,100.330987 C155.1,101.030987 154.8,101.730987 154.2,102.030987 C151.6,103.630987 147.9,105.430987 143.3,106.430987 C135,108.330987 127.9,106.930987 123.9,105.730987 C123.1,105.530987 122.5,104.730987 122.5,103.930987 L122.116003,86.5231121 C116.922742,88.453918 117.212232,88.2602425 116.7,88.4309867 C110.4,90.0309867 105,89.8309867 104,89.6309867 C100.4,89.3309867 96.6,86.3309867 93.2,81.2309867 C88.6,74.4309867 84.5,63.8309867 82.3,51.1309867 C81.9,49.3309867 81.8,47.5309867 81.7,45.7309867 L81.3,27.8309867 C81.2,23.8309867 82.2,19.9309867 84.1,16.2309867 C84.9,14.6309867 85.7,13.3309867 86.7,12.2309867 C86.7324981,12.189291 86.7650752,12.1477419 86.7977306,12.1063389 C86.8324792,12.047927 86.8665885,11.9894569 86.9,11.9309867 C94.6,1.23098667 110.7,-0.169013327 118.1,0.630986673 C119,0.730986673 122.2,1.13098667 126.8,1.43098667 C129.3,1.63098667 131.3,1.63098667 132.5,1.73098667 C147.4,2.33098667 153.3,0.530986673 160.8,4.53098667 C162.2,5.23098667 165.4,7.03098667 168.2,10.5309867 C176.1,20.4309867 173.796631,33.2309867 173.296631,37.0309867 C171.496631,48.4309867 165.3,55.4309867 163.3,58.3309867 C161.202911,61.4241932 157.26884,65.1774751 154.000354,68.0485107 Z M16.8182468,286.510102 C9.10792026,275.823611 8.9570124,257.049986 10.9899902,237.459473 C13.2141113,237.459473 29.0218099,238.592842 58.4130859,240.859582 C64.4433594,241.360045 74.6537608,242.575872 89.0442902,244.507061 L141.984937,256.645668 L204.2,241.430987 L203.9,238.6 C212.507838,237.491073 218.780081,236.655656 222.71673,236.09375 C233.295176,234.583812 248.795574,232.311463 269.217925,229.276703 C271.816277,260.019396 267.360311,294.100751 237.9,303.831152 L113.457317,303.831152 L5.92117498,306.998033 C4.26503819,307.046806 2.88293625,305.74378 2.83416392,304.087643 C2.81481362,303.430574 3.0118125,302.785338 3.39487431,302.251131 C7.90408264,295.962721 12.3785401,290.715711 16.8182468,286.510102 Z" id="Skin" fill="#DB9E75" fill-rule="nonzero"></path>
                            <path d="M16.8953078,286.616293 C9.10894658,275.948285 8.95026152,257.11504 10.9899902,237.459473 C13.2141113,237.459473 24.6155599,238.23763 45.1943359,239.793945 C52.3347982,240.071615 66.9514496,241.642653 89.0442902,244.507061 C110.017266,249.315893 127.812021,253.396001 142.428556,256.747384 L85.7130305,270.617154 C84.2002665,270.099852 82.6441098,269.629845 81.0442902,269.213855 C54.6442902,262.375234 33.6442902,274.737356 26.2442902,279.340274 C22.8227825,281.468035 19.7108087,283.967232 16.8953078,286.616293 Z" id="Shadow" fill="#8C2A00" fill-rule="nonzero" opacity="0.2"></path>
                            <path d="M172.18157,41.8229991 C167.757591,40.712504 162.885692,39.3769294 157.853498,37.9207182 C157.497251,36.5421386 156.897052,35.2024456 156.003078,33.9562988 C152.803078,29.4562988 146.4,26.9309867 141.6,28.5309867 C139.27478,29.3060601 137.617047,30.9711169 137.073896,31.5461685 C124.91381,27.624959 114.166006,23.8373151 109.137143,21.7470697 C103.271296,19.3089321 99.3698126,16.9825 97.4326919,14.7677736 C90.4472693,18.8895715 85.081261,21.6369151 81.334667,23.0098042 C81.7664051,20.5394657 82.6072404,18.1236841 83.8068371,15.7876273 C84.6068371,14.1876273 85.4068371,12.8876273 86.4068371,11.7876273 C86.4393352,11.7459316 86.4719123,11.7043825 86.5045676,11.6629796 C86.5393163,11.6045677 86.5734255,11.5460975 86.6068371,11.4876273 C94.3068371,0.787627298 110.406837,-0.612372702 117.806837,0.187627298 C118.706837,0.287627298 121.906837,0.687627298 126.506837,0.987627298 C129.006837,1.1876273 131.006837,1.1876273 132.206837,1.2876273 C147.106837,1.8876273 153.006837,0.0876272983 160.506837,4.0876273 C161.906837,4.7876273 165.106837,6.5876273 167.906837,10.0876273 C175.806837,19.9876273 173.906837,32.7876273 173.406837,36.5876273 C173.112824,38.4497078 172.690747,40.1943959 172.18157,41.8229991 Z M84.8,40.1309867 C83.8,39.9309867 83.5,38.6309867 84.2,37.9309867 C85.1,37.1309867 86.7,36.3309867 88.7,36.3309867 C92.8,36.3309867 97.2,39.0309867 92.6,40.2309867 C89.9,41.0309867 86.7,40.5309867 84.8,40.1309867 Z M105.4,40.8309867 C104.4,40.6309867 104.1,39.3309867 104.9,38.6309867 C105.8,37.8309867 107.4,37.0309867 109.5,37.0309867 C113.6,37.0309867 118,39.8309867 113.4,40.9309867 C110.5,41.7309867 107.4,41.2309867 105.4,40.8309867 Z" id="Hair" fill="#482D1F" fill-rule="nonzero"></path>
                            <polygon id="Shadow" fill="#482D1F" fill-rule="nonzero" points="121.9 86.2949219 133.254945 80.3959961 122.6 96.8309867"></polygon>
                            <path d="M92.6,47.1309867 C92.5,48.8309867 92.2,51.6309867 91.2,52.6309867 C89.5,54.1309867 87.3,49.1309867 88.6,46.0309867 C89.1,44.7309867 89.8,44.5309867 90.6,44.6309867 C91.8,44.8309867 92.6,45.9309867 92.6,47.1309867 Z M110.5,46.9309867 C110.6,48.6309867 110.6,51.4309867 109.6,52.6309867 C108.1,54.3309867 105.3,49.5309867 106.3,46.3309867 C106.7,45.0309867 107.4,44.7309867 108.2,44.7309867 C109.4,44.7309867 110.4,45.7309867 110.5,46.9309867 Z" id="Eyes" fill="#482D1F" fill-rule="nonzero"></path>
                            <path d="M102.3,67.5309867 C103,67.3309867 104.7,66.8309867 105,65.7309867 C105,65.5309867 105.1,65.2309867 105,65.0309867 C104.6,64.3309867 103.4,64.7309867 101.6,64.8309867 C98.4,65.0309867 95.8,64.7309867 95.8,64.7309867 C95.8,64.7309867 96.5,66.7309867 97,67.3309867 C98.1,68.8309867 101.3,67.8309867 102.3,67.5309867 Z" id="Mouth" fill="#482D1F" fill-rule="nonzero"></path>
                            <path d="M94.0096837,57.8921573 C93.8213866,59.0199043 94.6957266,60.1274015 95.835601,60.3173806 C96.0851357,60.3405165 96.0851357,60.3405165 96.2469556,60.3529864 C97.9340923,60.4826964 98.9891218,60.5309867 100.8,60.5309867 C101.352285,60.5309867 101.8,60.0832714 101.8,59.5309867 C101.8,58.9787019 101.352285,58.5309867 100.8,58.5309867 C99.0459946,58.5309867 98.0401326,58.4849469 96.4002666,58.3588712 L96.0766965,58.3339322 C96.0739704,58.3295213 95.9832005,58.2145461 95.9863939,58.1953857 L97.4903163,47.4698161 L97.5,47.3309867 L97.5,41.4309867 C97.5,40.8787019 97.0522847,40.4309867 96.5,40.4309867 C95.9477153,40.4309867 95.5,40.8787019 95.5,41.4309867 L95.5,47.2612342 L94.0096837,57.8921573 Z" id="Nose" fill="#482D1F" fill-rule="nonzero"></path>
                            <path d="M157.811988,38.1543769 C158.269821,41.0845057 157.742342,44.2744973 156.412245,46.8396828 C154.795751,50.0724304 152.520231,51.8354454 149.580942,53.1920406 C149.07949,53.4234801 148.860601,54.0176061 149.092041,54.5190582 C149.32348,55.0205103 149.917606,55.2393988 150.419058,55.0079594 C151.71149,54.4114524 152.737363,53.8356217 153.92496,52.9155012 C155.674326,51.5601367 157.13839,49.8592885 158.194427,47.7472136 C159.71315,44.8184837 160.311817,41.1979733 159.788012,37.8456231 C159.702752,37.2999591 159.191287,36.926728 158.645623,37.011988 C158.099959,37.097248 157.726728,37.6087129 157.811988,38.1543769 Z" id="Ear" fill="#482D1F" fill-rule="nonzero"></path>
                            <path d="M66.4721505,240.780109 C68.4182401,204.100743 69.2821079,187.783721 70.3579684,167.330804 C70.4630268,165.333565 73.4594645,165.491637 73.3538027,167.488844 L69.4679489,240.938828 C69.3622871,242.936035 66.3661859,242.777299 66.4721505,240.780109 Z M205.846596,237.667525 C206.429818,239.562998 203.60209,240.459294 202.986918,238.573948 L189.086918,195.973948 C188.47876,194.110097 191.23738,193.148789 191.919277,194.986944 C193.868924,200.242515 202.980393,228.352365 205.846596,237.667525 Z" id="Shadow" fill="#482D1F" fill-rule="nonzero"></path>
                        </g>
                    </g>
                </g>
                <g id="Characters-sitting-/-Woman-sitting/-12" transform="translate(0.000000, 258.000000)">
                    <g id="Woman" transform="translate(96.000000, 5.000000)">
                        <g id="Legs" transform="translate(0.708492, 366.000000)" fill-rule="nonzero">
                            <path d="M32.1915081,385 C29.5915081,385 27.5915081,383.269231 27.6915081,381.192308 L27.6915081,379.807692 C27.6915081,377.730769 29.7915081,376 32.1915081,376 L134.691508,376 C137.191508,376 139.191508,377.730769 139.191508,379.807692 L139.191508,381.192308 C139.191508,383.269231 137.091508,385 134.691508,385 L32.1915081,385 Z M165.791508,376 L324.791508,376 C327.276789,376 329.291508,378.014719 329.291508,380.5 C329.291508,382.985281 327.276789,385 324.791508,385 L165.791508,385 C163.306227,385 161.291508,382.985281 161.291508,380.5 C161.291508,378.014719 163.306227,376 165.791508,376 Z" id="Base" fill="#DE3190"></path>
                            <path d="M159.975029,140.543862 L151.431744,145.073429 L151.306916,149.012218 C151.065961,159.122814 150.681402,168.008487 150.159476,175.844717 C149.778168,182.007042 144.556188,251.848334 142.665509,277.47648 C142.271725,283.287848 138.149006,288.348672 132.308741,290.130254 C123.501494,292.892082 117.854869,294.491329 94.7970117,296.072938 C93.3010444,296.212103 91.7988392,296.17579 90.3965731,296.136047 C67.9478395,295.149217 56.64238,292.374579 54.1064755,291.407416 C50.8616405,290.201033 49.1408434,289.64514 47.3888568,288.211854 C41.2116126,283.328674 41.3244253,275.24294 41.1184418,272.26323 C39.8958196,252.606028 36.5348491,198.511427 34.5770722,153.509204 C32.7825088,152.869465 31.0934688,151.955899 29.6357356,150.651634 C23.647006,145.255115 15.3434495,139.026886 10.7985297,128.41715 C-2.06216314,98.3949376 -3.43536012,64.8832247 6.67893876,27.8820116 C14.5973701,10.7597249 19.9206853,1.46572104 22.6488844,1.13686838e-13 L232.092577,14.3056035 C234.02187,14.2636279 235.954029,14.2216524 237.891508,14.1796768 C263.191508,13.7247111 283.691508,33.4702256 283.091508,57.5834115 C283.091508,57.7653979 283.091508,57.856391 283.091508,58.0383773 C281.491508,132.83475 262.791508,239.387734 261.491508,275.421024 C261.391508,276.785921 260.991508,279.788695 258.891508,282.973455 C252.391508,292.709723 237.191508,290.525887 201.691508,291.344826 C171.491508,292.072771 159.291508,294.256607 153.091508,286.249209 C149.691508,281.881538 149.791508,276.876914 149.891508,274.602085 C152.322592,229.712234 155.843594,184.406488 159.975029,140.543862 Z" fill="#3ABF7C"></path>
                            <path d="M160.333847,140.508175 L151.799223,145.03315 L154.083805,72.9463407 C154.043391,68.9946414 153.694731,45.1123955 133.267275,30.6157345 C118.386239,20.1454301 100.772009,20.0469097 89.0635414,20.0093331 C82.4364415,19.9781338 58.7954623,19.5546108 49.4631599,30.6157345 C33.4281115,49.6212969 32.020129,85.2575194 32.3261496,90.3001491 C32.8847073,100.383318 33.5429389,116.085234 34.1916811,134.335019 C34.4089516,140.447061 34.6680456,146.895579 34.9575814,153.540678 C33.1298713,152.899535 31.4090524,151.97744 29.9272437,150.651634 C23.9385141,145.255115 15.6349576,139.026886 11.0900378,128.41715 C-1.77065505,98.3949376 -3.14385203,64.8832247 6.97044685,27.8820116 C14.8888782,10.7597249 20.2121934,1.46572104 22.9403925,1.42108547e-14 L230.494168,14.1765168 C224.720932,14.3022335 218.965906,14.4279502 213.16316,14.5536669 C190.66316,15.0996258 171.96316,31.3874005 169.56316,52.6797987 C166.301826,80.8719103 163.173446,110.349422 160.333847,140.508175 Z" id="Shadow" fill="#444444" opacity="0.176985679"></path>
                            <path d="M136.685146,376.442553 C136.054601,376.155543 135.33318,375.991912 134.564488,375.991912 L33.2915081,375.991912 L56.8608961,314.6 L127.008793,318.347656 L136.685146,376.442553 Z M163.950462,376.329853 L163.421977,312 L239.060896,313.1 L256.860896,326.5 C260.960896,330.7 265.360896,334.4 270.160896,337.7 C281.760896,345.6 287.860896,345.5 305.560896,354.3 C310.460896,356.6 314.960896,359.2 319.460896,362.1 C321.660896,364.2 325.460896,368.2 326.660896,373 C326.860896,373.7 326.860896,374.5 326.960896,375.3 C326.960896,375.854332 326.941062,376.273306 326.903587,376.587647 C326.244166,376.208652 325.479638,375.991912 324.664488,375.991912 L165.664488,375.991912 C165.05759,375.991912 164.478752,376.112055 163.950462,376.329853 Z" id="Combined-Shape" fill="#474961"></path>
                        </g>
                        <g id="Body" transform="translate(2.345908, 0.144542)" fill-rule="nonzero">
                            <path d="M164.030535,269.44488 C162.357044,303.503157 158.579674,350.341207 155.157226,359.434335 C149.970863,373.214018 50.4789067,363.40404 37.2310879,360.390017 C28.949146,358.516826 21.2259544,336.193667 19.7970915,328.717833 C18.5847061,322.700696 11.8566041,315.980334 26.5315877,262.498208 C20.1049876,260.83066 14.8392582,259.42617 11.9823799,258.696264 C0.405800478,255.738557 5.50127295,242.216474 7.55328957,232.924031 C13.429519,206.404025 20.7981241,196.693944 23.3165081,193.770479 C26.2079861,190.429376 29.0061906,188.027958 30.8716602,186.566225 C43.4635804,176.751735 56.8016884,175.290002 63.6106526,175.185593 C63.7971996,175.081183 63.9837466,175.081183 64.1702935,175.081183 L97.2823799,174.663545 C97.1706216,175.558208 97.0514856,176.513159 96.9256146,177.52292 C98.3085992,177.574646 99.6679273,177.636327 100.990869,177.706464 C101.036392,176.698131 101.079282,175.745865 101.119235,174.855458 L133.658815,180.999234 C133.842528,181.031628 134.026241,181.064021 134.192589,181.194896 C140.880745,182.475741 153.77311,186.17061 164.541438,197.614367 C166.135459,199.317033 168.491762,202.067994 170.783638,205.721479 C172.777547,208.916253 178.419278,219.35451 179.795571,245.389023 C180.270944,254.510141 183.072003,268.160115 171.179388,268.939622 C169.516195,269.048637 167.054471,269.227436 164.030535,269.44488 Z" id="T-shirt" fill="#DE3190"></path>
                            <path d="M164.162362,269.435374 C165.269301,246.614191 164.071566,230.081794 163.059714,223.504708 C162.341003,218.800361 161.169805,214.446968 161.169805,214.446968 C160.61799,211.355131 159.446791,207.001738 156.592897,202.409044 C147.732786,187.695135 130.004461,183.020156 118.058698,179.732537 C115.443316,179.031987 108.856683,178.315125 100.982225,177.897919 C101.03097,176.818496 101.076763,175.802023 101.119235,174.855458 L133.658815,180.999234 C133.842528,181.031628 134.026241,181.064021 134.192589,181.194896 C140.880745,182.475741 153.77311,186.17061 164.541438,197.614367 C166.135459,199.317033 168.491762,202.067994 170.783638,205.721479 C172.777547,208.916253 178.419278,219.35451 179.795571,245.389023 C180.270944,254.510141 183.072003,268.160115 171.179388,268.939622 C169.54043,269.047049 167.126041,269.22224 164.162362,269.435399 Z" id="Shadow-Arm" fill="#444444" opacity="0.176985679"></path>
                            <path d="M212.187295,236.331954 C219.741331,228.99541 233.389443,217.858713 253.131631,202.921864 C259.18965,203.629334 258.749273,208.431417 251.8105,217.328114 L212.187295,236.331954 Z M81.0296967,274.153547 C80.6993812,274.913273 79.8157282,275.261378 79.0560024,274.931063 C78.2962767,274.600747 77.948171,273.717094 78.2784865,272.957369 C80.2143595,268.504861 80.9927872,266.016945 82.4925048,259.518169 C82.6787845,258.710956 83.4841688,258.207591 84.2913809,258.393871 C85.098593,258.580151 85.6019581,259.385535 85.4156784,260.192747 C83.8774649,266.858339 83.0456837,269.516777 81.0296967,274.153547 Z" id="Finger" fill="#482D1F"></path>
                            <path d="M59.8785161,659.00755 C65.8188211,660.123549 75.3635337,661.389829 89.0506647,661.991505 C90.4529308,662.031247 91.955136,662.067561 93.4511033,661.928396 C111.023259,660.723068 118.483307,659.507496 124.936493,657.774921 L125.371377,684.203114 L55.2234796,680.455458 L59.8785161,659.00755 Z M161.623718,657.384468 C169.360026,658.702134 181.25727,657.660391 200.3456,657.200283 C210.591683,656.96392 219.146721,656.977695 226.289614,656.882819 L237.38456,678.955458 L161.78456,677.855458 L161.623718,657.384468 Z M157.40971,343.206078 L163.968789,269.435399 C165.392096,269.324089 166.483527,269.24015 167.243081,269.183583 C168.773854,269.06958 170.3497,269.009774 172.168008,268.646473 C174.506549,268.179229 176.085305,267.597462 176.904275,266.901173 L179.812029,286.731954 L208.145086,240.427398 C209.539578,238.148388 211.517481,236.283203 213.874304,235.024679 L264.153045,208.176255 C271.85716,200.948287 277.40064,196.763992 280.783486,195.623369 C284.166332,194.482747 287.693512,195.608612 291.365025,199.000966 L247.534951,244.930307 C242.029752,260.8599 235.969334,276.758845 229.353695,292.627143 C222.74184,308.486363 212.461611,331.742513 198.513006,362.395592 C217.558979,372.611663 229.027394,380.701161 229.027394,380.701161 C229.027394,380.701161 87.2447669,378.299976 31.0042187,374.855458 C-19.031177,371.790982 5.09567649,278.881612 11.0287144,258.417096 C11.3332489,258.518427 11.6509832,258.611595 11.9823799,258.696264 C22.339751,261.342475 64.3581883,273.015441 78.5699989,273.812572 L64.9271047,321.455458 C98.4444921,323.23522 130.590857,332.506596 157.40971,343.206078 Z M119.157684,177.316713 C121.639149,178.002415 124.218291,178.821032 126.895109,179.772561 C124.669248,185.214228 121.572859,188.402747 117.605942,189.338118 C111.655567,190.741173 97.4143981,190.741173 88.0511877,186.717905 C81.8090475,184.035726 77.1099046,180.125241 73.9537591,174.98645 C77.5793006,174.918908 80.9844963,174.861961 84.1693461,174.81561 L84.1693461,137.710303 C81.6528579,134.760658 79.4497425,131.947728 78.1537108,129.336868 C75.9683595,125.010872 76.274496,114.09668 77.2246743,108.894069 C77.5397446,106.758482 92.9291915,91.5962113 101.838435,106.470055 L101.001921,80.8454529 C100.962091,79.2428258 102.143842,77.8344702 103.846088,77.7859249 C107.341485,77.5804993 110.819451,77.1758347 114.535266,76.0476872 C114.933744,76.0128249 115.323507,75.8783431 115.721984,75.8434808 C119.0829,75.2482929 138.031778,72.6870429 149.032098,85.9788814 C150.03326,87.0958749 150.943518,88.3212034 151.780304,89.8541059 C153.597072,93.4092926 154.643031,97.3330624 154.692796,101.343988 L154.849495,119.198272 C154.807137,121.008853 154.665159,122.82815 154.414846,124.556544 C152.624043,137.361349 148.839632,148.031786 144.425171,154.94283 C141.166314,160.14666 137.425571,163.284629 133.947605,163.689293 C132.960126,163.876068 127.571959,164.24709 121.130337,162.903401 C120.710088,162.803013 120.821613,162.89035 118.195296,162.01118 L119.157684,177.316713 Z" id="Combined-Shape" fill="#DB9E75"></path>
                            <path d="M65.9132077,321.885593 C66.7379728,321.807785 67.4696528,322.413313 67.5474609,323.238078 C67.6252689,324.062843 67.0197406,324.794523 66.1949755,324.872331 C66.000169,324.890709 65.6189209,324.933695 65.0781553,325.006044 C64.1681755,325.127791 63.1520255,325.288412 62.0567642,325.49256 C58.9306411,326.075246 55.806557,326.887615 52.9042377,327.962916 C51.1909628,328.59768 49.6064536,329.30707 48.1769697,330.093286 C47.4510887,330.49252 46.5390023,330.227721 46.1397678,329.50184 C45.7405332,328.775959 46.0053325,327.863873 46.7312135,327.464638 C48.2980566,326.602874 50.0163711,325.83358 51.8619804,325.149787 C54.940716,324.009123 58.224905,323.155121 61.507055,322.543354 C62.6546892,322.329444 63.721228,322.160858 64.6803278,322.032539 C65.0178638,321.98738 65.3185128,321.950428 65.5789682,321.921061 C65.7383582,321.90309 65.8508757,321.891473 65.9132077,321.885593 Z M178.262213,285.839042 C178.71715,285.14671 179.647196,284.954264 180.339528,285.409202 C181.031859,285.864139 181.224305,286.794185 180.769367,287.486517 C180.728053,287.54939 180.728053,287.54939 180.530897,287.849794 C180.336285,288.14642 180.1106,288.490704 179.856472,288.878734 C179.130282,289.987562 178.321881,291.224458 177.45232,292.55813 C174.968,296.368404 172.491475,300.19049 170.191298,303.773785 C169.954339,304.143015 169.954339,304.143015 169.717649,304.512183 C166.215615,309.975688 166.874819,308.435765 165.21041,311.230101 C164.786474,311.941838 163.865828,312.175146 163.154092,311.75121 C162.442355,311.327273 162.209046,310.406628 162.632983,309.694891 C164.318821,306.864579 163.673205,308.382856 167.191966,302.893254 C167.429201,302.523237 167.429201,302.523237 167.666683,302.153193 C169.971146,298.56322 172.45138,294.735411 174.939295,290.919623 C175.810016,289.584173 176.619526,288.345578 177.346795,287.235103 C177.601379,286.846377 177.827511,286.501411 178.022564,286.204113 C178.220334,285.902773 178.220334,285.902773 178.262213,285.839042 Z" id="Shadow" fill="#482D1F"></path>
                            <polygon id="Path" fill="#482D1F" transform="translate(111.331350, 165.080151) rotate(-5.000000) translate(-111.331350, -165.080151) " points="118.479935 162.645258 104.182765 156.065722 118.154896 174.094579"></polygon>
                            <path d="M99.5274334,116.244766 L99.4409537,114.385452 C99.4409537,114.385452 99.0409537,110.785452 96.5409537,107.185452 C96.3409537,106.985452 94.6409537,104.785452 92.0409537,103.685452 C87.3409537,101.885452 81.1409537,103.985452 77.7409537,108.285452 C74.1409537,112.685452 74.1409537,118.585452 76.0409537,123.085452 C77.9409537,127.585452 81.6409537,129.685452 82.9409537,130.285452 L88.7692372,132.125538 C83.7591049,139.846551 79.3124307,146.750546 78.4188137,146.672364 C76.7803155,146.529014 71.0409537,138.385452 67.3409537,132.285452 C65.5409537,129.285452 59.1409537,121.985452 58.0409537,110.485452 C57.8295203,107.807295 57.1710461,100.60906 59.8112978,93.2666418 C47.8618809,84.3309755 40.1271663,70.0687575 40.1271663,54 C40.1271663,26.9380473 62.0652135,5 89.1271663,5 C116.189119,5 138.127166,26.9380473 138.127166,54 C138.127166,62.9207638 135.74329,71.2847434 131.577823,78.4896518 C138.420083,80.7022373 145.545613,84.9215942 149.047703,92.1832301 C146.939606,93.4238962 144.440954,94.3854517 141.640954,94.8854517 C134.040954,96.0854517 127.540954,94.5854517 123.640954,93.1854517 C116.040954,100.385452 108.340954,107.485452 100.740954,114.685452 C100.354651,115.164249 99.949155,115.686061 99.5274334,116.244766 Z" id="Hair" fill="#482D1F" transform="translate(94.587435, 75.836511) rotate(-5.000000) translate(-94.587435, -75.836511) "></path>
                            <path d="M150.248422,122.591451 C150.548422,121.391451 151.748422,120.491451 152.948422,120.691451 C153.748422,120.791451 154.348422,121.391451 154.648422,122.791451 C154.948422,126.291451 151.148422,130.691451 150.048422,128.591451 C149.248422,127.291451 149.848422,124.391451 150.248422,122.591451 Z" id="Path" fill="#482D1F" transform="translate(152.159663, 124.900177) rotate(-5.000000) translate(-152.159663, -124.900177) "></path>
                            <path d="M128.280666,121.765878 C128.580666,120.565878 129.780666,119.665878 130.980666,119.865878 C131.780666,119.965878 132.380666,120.565878 132.680666,121.965878 C132.980666,125.465878 129.180666,129.865878 128.080666,127.765878 C127.280666,126.465878 127.880666,123.565878 128.280666,121.765878 Z" id="Path" fill="#482D1F" transform="translate(130.191908, 124.074603) rotate(-5.000000) translate(-130.191908, -124.074603) "></path>
                            <path d="M143.132892,124.340239 L143.232892,134.340239 C143.232842,134.377955 143.080557,134.53024 143.032842,134.53024 C142.485911,134.53024 141.926658,134.494325 141.054166,134.40989 C140.884738,134.393494 140.70755,134.375766 140.452344,134.349821 C140.13082,134.317044 139.954726,134.299117 139.786132,134.282144 C139.208766,134.22402 138.730524,134.178439 138.219472,134.133999 L138.215888,134.133694 C137.669263,134.086155 137.184446,134.493402 137.136602,135.04361 C137.088757,135.593819 137.496004,136.078636 138.046213,136.12648 L138.049797,136.126786 C138.54707,136.170033 139.016743,136.214798 139.585802,136.272086 C139.753089,136.288927 139.927833,136.306717 140.250059,136.339565 C140.508212,136.36581 140.688193,136.383817 140.861518,136.40059 C141.792663,136.490701 142.408345,136.53024 143.032842,136.53024 C144.185127,136.53024 145.232842,135.482525 145.232842,134.330239 L145.132783,124.32024 C145.12727,123.767983 144.6751,123.324767 144.122843,123.330239 C143.570586,123.335812 143.12737,123.787982 143.132892,124.340239 Z" id="Nose" fill="#482D1F" transform="translate(141.182812, 129.930239) rotate(-5.000000) translate(-141.182812, -129.930239) "></path>
                            <path d="M137.100151,141.937963 C136.400151,141.637963 134.700151,140.837963 134.600151,139.837963 C134.600151,139.637963 134.500151,139.337963 134.700151,139.237963 C135.200151,138.737963 136.400151,139.237963 138.200151,139.737963 C141.400151,140.537963 144.000151,140.737963 144.000151,140.737963 C144.000151,140.737963 143.000151,142.337963 142.400151,142.737963 C141.200151,143.937963 138.100151,142.437963 137.100151,141.937963 Z" id="Mouth" fill="#482D1F" transform="translate(139.287651, 141.111608) rotate(-5.000000) translate(-139.287651, -141.111608) "></path>
                            <path d="M113.02407,117.237438 L107.163709,115.440261 C106.371688,115.197375 105.926527,114.358416 106.169413,113.566395 C106.4123,112.774374 107.251258,112.329212 108.043279,112.572098 L114.344512,114.504477 C116.851762,110.482596 121.315073,107.80618 126.403494,107.80618 C134.245938,107.80618 140.603494,114.163736 140.603494,122.00618 C140.603494,122.193493 140.599868,122.37996 140.59268,122.565513 L143.61448,122.936611 C144.97978,116.519712 150.679507,111.70618 157.503494,111.70618 C165.345938,111.70618 171.703494,118.063736 171.703494,125.90618 C171.703494,133.748623 165.345938,140.10618 157.503494,140.10618 C149.665978,140.10618 143.311483,133.756609 143.303502,125.920958 L140.16154,125.535103 C138.59253,131.670351 133.027712,136.20618 126.403494,136.20618 C118.561051,136.20618 112.203494,129.848623 112.203494,122.00618 C112.203494,120.333266 112.492785,118.72792 113.02407,117.237438 Z M116.248582,117.275678 C115.578005,118.712744 115.203494,120.315726 115.203494,122.00618 C115.203494,128.191769 120.217905,133.20618 126.403494,133.20618 C132.589084,133.20618 137.603494,128.191769 137.603494,122.00618 C137.603494,115.820591 132.589084,110.80618 126.403494,110.80618 C122.156415,110.80618 118.461465,113.170132 116.562659,116.654023 C116.555311,116.684715 116.546957,116.715375 116.537576,116.745965 C116.47603,116.946657 116.376211,117.125079 116.248582,117.275678 Z M146.335452,125.053706 C146.314275,125.33509 146.303494,125.619376 146.303494,125.90618 C146.303494,132.091769 151.317905,137.10618 157.503494,137.10618 C163.689084,137.10618 168.703494,132.091769 168.703494,125.90618 C168.703494,119.720591 163.689084,114.70618 157.503494,114.70618 C151.808982,114.70618 147.107068,118.956004 146.396386,124.457019 C146.407106,124.565322 146.40613,124.676478 146.39231,124.789017 C146.381089,124.880384 146.361874,124.968819 146.335452,125.053706 Z" id="Glasses" fill="#482D1F" transform="translate(138.903295, 123.956180) rotate(-5.000000) translate(-138.903295, -123.956180) "></path>
                            <path d="M163.968789,269.435399 L157.405068,343.25829 C166.708617,347.078629 173.665811,350.074234 178.27665,352.245106 C182.887489,354.415978 189.624957,357.81702 198.489053,362.448231 C212.449842,331.769136 222.738056,308.49544 229.353695,292.627143 C235.969334,276.758845 242.029752,260.8599 247.534951,244.930307 L291.365025,199.000966 C287.693512,195.60739 284.166332,194.480913 280.783486,195.621536 C277.40064,196.762158 271.85716,200.947065 264.153045,208.176255 L213.874304,235.024679 C211.517481,236.283203 209.539578,238.148388 208.145086,240.427398 L179.812029,286.731954 L176.904275,266.901173 C176.251321,267.597462 174.755573,268.179229 172.417031,268.646473 C170.598724,269.009774 169.022877,269.06958 167.492104,269.183583 C166.73255,269.24015 165.558112,269.324089 163.968789,269.435399 Z" id="Shadow-Arm" fill="#8C2A00" opacity="0.2"></path>
                        </g>
                    </g>
                </g>
                <g id="Interior-/-Table-/-Table-2" transform="translate(102.000000, 631.000000)" fill="#D8DEED">
                    <g id="Table-Copy">
                        <rect id="Rectangle" fill-rule="nonzero" x="0" y="0" width="815" height="14" rx="7"></rect>
                    </g>
                </g>
                <g id="UI-/-Icons-/-Money" transform="translate(78.000000, 0.000000)">
                    <g id="Group-21">
                        <circle id="Oval" fill="#474BFF" fill-rule="nonzero" cx="55" cy="55" r="55"></circle>
                        <path d="M74.8935547,41.3266602 L62.7236328,43.2568359 C62.1129527,41.7083256 61.5622583,40.634199 61.0715332,40.0344238 C60.5808081,39.4346487 59.7683976,38.8294301 58.6342773,38.21875 L58.6342773,47.6733398 C65.2645188,49.4399502 69.6918834,51.3046777 71.9165039,53.2675781 C74.8608546,55.9065887 76.3330078,59.2543742 76.3330078,63.3110352 C76.3330078,65.6883257 75.8041231,67.8692935 74.7463379,69.8540039 C73.6885527,71.8387144 72.3363526,73.4962499 70.6896973,74.8266602 C69.0430419,76.1570705 67.2928153,77.1221487 65.4389648,77.7219238 C63.5851144,78.321699 61.3169079,78.6761062 58.6342773,78.7851562 L58.6342773,84.9682617 L53.8579102,84.9682617 L53.8579102,78.7851562 C50.6518394,78.5016262 48.0510354,77.9836463 46.0554199,77.2312012 C44.0598045,76.478756 42.3368399,75.4373439 40.8864746,74.1069336 C39.4361093,72.7765233 38.3183633,71.342537 37.5332031,69.8049316 C36.7480429,68.2673263 36.1591817,66.4080513 35.7666016,64.2270508 L48.9833984,62.6894531 C49.3759785,64.8486436 49.9048632,66.4080356 50.5700684,67.3676758 C51.2352735,68.327316 52.3312098,69.1778934 53.8579102,69.9194336 L53.8579102,58.3710938 C49.4522892,57.1497335 46.3280528,56.0919641 44.4851074,55.1977539 C42.642162,54.3035437 41.0446031,52.8695574 39.6923828,50.895752 C38.3401625,48.9219465 37.6640625,46.5174295 37.6640625,43.6821289 C37.6640625,39.799948 39.0217149,36.5557585 41.7370605,33.9494629 C44.4524062,31.3431673 48.492649,29.8982762 53.8579102,29.6147461 L53.8579102,26.3759766 L58.6342773,26.3759766 L58.6342773,29.6147461 C63.5197184,29.9200862 67.2546257,31.0759991 69.8391113,33.0825195 C72.4235969,35.08904 74.1083945,37.8370594 74.8935547,41.3266602 Z M53.8579102,38.0551758 C52.4620698,38.5131859 51.4915392,39.0802375 50.9462891,39.7563477 C50.4010389,40.4324578 50.128418,41.228511 50.128418,42.1445312 C50.128418,43.1041715 50.4064914,43.9383916 50.9626465,44.6472168 C51.5188016,45.356042 52.4838798,45.9503557 53.8579102,46.4301758 L53.8579102,38.0551758 Z M58.6342773,70.246582 C60.4881278,69.8321919 61.8457802,69.1506395 62.7072754,68.2019043 C63.5687706,67.2531691 63.9995117,66.1899473 63.9995117,65.012207 C63.9995117,63.9871368 63.6341996,63.0438682 62.9035645,62.182373 C62.1729293,61.3208779 60.7498478,60.5193722 58.6342773,59.777832 L58.6342773,70.246582 Z" id="$" fill="#F2F6FB" fill-rule="nonzero"></path>
                    </g>
                </g>
            </g>
            <g id="Active-objects-/-Devices-/-Imac" transform="translate(357.000000, 366.000000)">
                <g id="IMac" transform="translate(52.000000, 77.000000)">
                    <path d="M77.2741822,174.002112 L86.8908439,135.2 L14.7012122,135.2 C7.20121215,135.2 1,129.5 1,122.6 L1,12.7 C0.901212154,5.7 7.00121215,0 14.6012122,0 L234.301212,0 C241.801212,0 248.001212,5.7 248.001212,12.6 L248.001212,122.6 C248.001212,129.5 241.801212,135.2 234.301212,135.2 L146.325551,135.2 L142.355883,174.002112 L168.402424,174.002112 C172.402424,174.002112 175.502424,177.202112 175.502424,181.102112 C175.502424,185.102112 172.302424,188.202112 168.402424,188.202112 L56.9024243,188.202112 C52.9024243,188.202112 49.8024243,185.002112 49.8024243,181.102112 C49.6024243,177.202112 52.9024243,174.002112 56.9024243,174.002112 L77.2741822,174.002112 Z" fill="#474961" fill-rule="nonzero"></path>
                    <path d="M149.306026,106.91856 L149.602424,174.102112 L142.432781,174.102112 L149.306026,106.91856 Z" id="Shadow" fill="#FFFFFF"></path>
                </g>
            </g>
        </g>
    </g>
</svg>